<?xml version="1.0" encoding="UTF-8" standalone="no"?>
<!DOCTYPE svg PUBLIC "-//W3C//DTD SVG 1.1//EN"
 "http://www.w3.org/Graphics/SVG/1.1/DTD/svg11.dtd">
<!-- Generated by graphviz version 2.43.0 (0)
 -->
<!-- Title: forex_exchange_rate_pipeline Pages: 1 -->
<svg width="510pt" height="233pt"
 viewBox="0.00 0.00 510.00 233.08" xmlns="http://www.w3.org/2000/svg" xmlns:xlink="http://www.w3.org/1999/xlink">
<g id="graph0" class="graph" transform="scale(1 1) rotate(0) translate(4 229.08)">
<title>forex_exchange_rate_pipeline</title>
<polygon fill="white" stroke="transparent" points="-4,4 -4,-229.08 506,-229.08 506,4 -4,4"/>
<text text-anchor="middle" x="251" y="-209.88" font-family="Times,serif" font-size="14.00">forex_exchange_rate_pipeline</text>
<!-- detect_anomalies -->
<g id="node1" class="node">
<title>detect_anomalies</title>
<path fill="#ffefeb" stroke="#000000" d="M370,-166.86C370,-166.86 283,-166.86 283,-166.86 277,-166.86 271,-160.86 271,-154.86 271,-154.86 271,-142.86 271,-142.86 271,-136.86 277,-130.86 283,-130.86 283,-130.86 370,-130.86 370,-130.86 376,-130.86 382,-136.86 382,-142.86 382,-142.86 382,-154.86 382,-154.86 382,-160.86 376,-166.86 370,-166.86"/>
<text text-anchor="middle" x="326.5" y="-145.16" font-family="Times,serif" font-size="14.00">detect_anomalies</text>
</g>
<!-- log_pipeline -->
<g id="node5" class="node">
<title>log_pipeline</title>
<path fill="#ffefeb" stroke="#000000" d="M490,-112.86C490,-112.86 430,-112.86 430,-112.86 424,-112.86 418,-106.86 418,-100.86 418,-100.86 418,-88.86 418,-88.86 418,-82.86 424,-76.86 430,-76.86 430,-76.86 490,-76.86 490,-76.86 496,-76.86 502,-82.86 502,-88.86 502,-88.86 502,-100.86 502,-100.86 502,-106.86 496,-112.86 490,-112.86"/>
<text text-anchor="middle" x="460" y="-91.16" font-family="Times,serif" font-size="14.00">log_pipeline</text>
</g>
<!-- detect_anomalies&#45;&gt;log_pipeline -->
<g id="edge1" class="edge">
<title>detect_anomalies&#45;&gt;log_pipeline</title>
<path fill="none" stroke="black" d="M371.65,-130.73C383.43,-125.89 396.24,-120.63 408.34,-115.66"/>
<polygon fill="black" stroke="black" points="409.93,-118.79 417.85,-111.76 407.27,-112.32 409.93,-118.79"/>
</g>
<!-- extract_raw -->
<g id="node2" class="node">
<title>extract_raw</title>
<path fill="#ffefeb" stroke="#000000" d="M68,-166.86C68,-166.86 12,-166.86 12,-166.86 6,-166.86 0,-160.86 0,-154.86 0,-154.86 0,-142.86 0,-142.86 0,-136.86 6,-130.86 12,-130.86 12,-130.86 68,-130.86 68,-130.86 74,-130.86 80,-136.86 80,-142.86 80,-142.86 80,-154.86 80,-154.86 80,-160.86 74,-166.86 68,-166.86"/>
<text text-anchor="middle" x="40" y="-145.16" font-family="Times,serif" font-size="14.00">extract_raw</text>
</g>
<!-- extract_raw&#45;&gt;log_pipeline -->
<g id="edge2" class="edge">
<title>extract_raw&#45;&gt;log_pipeline</title>
<path fill="none" stroke="black" d="M80.01,-165.78C91.39,-169.92 104,-173.77 116,-175.86 232.46,-196.18 273.36,-222.48 382,-175.86 407.67,-164.85 428.82,-140.61 442.41,-121.5"/>
<polygon fill="black" stroke="black" points="445.37,-123.38 448.12,-113.15 439.59,-119.43 445.37,-123.38"/>
</g>
<!-- store_raw -->
<g id="node6" class="node">
<title>store_raw</title>
<path fill="#ffefeb" stroke="#000000" d="M198.5,-166.86C198.5,-166.86 152.5,-166.86 152.5,-166.86 146.5,-166.86 140.5,-160.86 140.5,-154.86 140.5,-154.86 140.5,-142.86 140.5,-142.86 140.5,-136.86 146.5,-130.86 152.5,-130.86 152.5,-130.86 198.5,-130.86 198.5,-130.86 204.5,-130.86 210.5,-136.86 210.5,-142.86 210.5,-142.86 210.5,-154.86 210.5,-154.86 210.5,-160.86 204.5,-166.86 198.5,-166.86"/>
<text text-anchor="middle" x="175.5" y="-145.16" font-family="Times,serif" font-size="14.00">store_raw</text>
</g>
<!-- extract_raw&#45;&gt;store_raw -->
<g id="edge3" class="edge">
<title>extract_raw&#45;&gt;store_raw</title>
<path fill="none" stroke="black" d="M80.33,-148.86C95.98,-148.86 114.06,-148.86 130.17,-148.86"/>
<polygon fill="black" stroke="black" points="130.42,-152.36 140.42,-148.86 130.42,-145.36 130.42,-152.36"/>
</g>
<!-- transform_validate -->
<g id="node7" class="node">
<title>transform_validate</title>
<path fill="#ffefeb" stroke="#000000" d="M223,-112.86C223,-112.86 128,-112.86 128,-112.86 122,-112.86 116,-106.86 116,-100.86 116,-100.86 116,-88.86 116,-88.86 116,-82.86 122,-76.86 128,-76.86 128,-76.86 223,-76.86 223,-76.86 229,-76.86 235,-82.86 235,-88.86 235,-88.86 235,-100.86 235,-100.86 235,-106.86 229,-112.86 223,-112.86"/>
<text text-anchor="middle" x="175.5" y="-91.16" font-family="Times,serif" font-size="14.00">transform_validate</text>
</g>
<!-- extract_raw&#45;&gt;transform_validate -->
<g id="edge4" class="edge">
<title>extract_raw&#45;&gt;transform_validate</title>
<path fill="none" stroke="black" d="M80.33,-132.95C92.83,-127.89 106.89,-122.21 120.25,-116.8"/>
<polygon fill="black" stroke="black" points="121.87,-119.92 129.83,-112.93 119.24,-113.44 121.87,-119.92"/>
</g>
<!-- load_graveyard -->
<g id="node3" class="node">
<title>load_graveyard</title>
<path fill="#ffefeb" stroke="#000000" d="M365,-112.86C365,-112.86 288,-112.86 288,-112.86 282,-112.86 276,-106.86 276,-100.86 276,-100.86 276,-88.86 276,-88.86 276,-82.86 282,-76.86 288,-76.86 288,-76.86 365,-76.86 365,-76.86 371,-76.86 377,-82.86 377,-88.86 377,-88.86 377,-100.86 377,-100.86 377,-106.86 371,-112.86 365,-112.86"/>
<text text-anchor="middle" x="326.5" y="-91.16" font-family="Times,serif" font-size="14.00">load_graveyard</text>
</g>
<!-- load_valid -->
<g id="node4" class="node">
<title>load_valid</title>
<path fill="#ffefeb" stroke="#000000" d="M351.5,-58.86C351.5,-58.86 301.5,-58.86 301.5,-58.86 295.5,-58.86 289.5,-52.86 289.5,-46.86 289.5,-46.86 289.5,-34.86 289.5,-34.86 289.5,-28.86 295.5,-22.86 301.5,-22.86 301.5,-22.86 351.5,-22.86 351.5,-22.86 357.5,-22.86 363.5,-28.86 363.5,-34.86 363.5,-34.86 363.5,-46.86 363.5,-46.86 363.5,-52.86 357.5,-58.86 351.5,-58.86"/>
<text text-anchor="middle" x="326.5" y="-37.16" font-family="Times,serif" font-size="14.00">load_valid</text>
</g>
<!-- load_valid&#45;&gt;log_pipeline -->
<g id="edge5" class="edge">
<title>load_valid&#45;&gt;log_pipeline</title>
<path fill="none" stroke="black" d="M363.78,-55.76C377.5,-61.39 393.38,-67.91 408.19,-73.99"/>
<polygon fill="black" stroke="black" points="407.15,-77.35 417.73,-77.91 409.81,-70.88 407.15,-77.35"/>
</g>
<!-- transform_validate&#45;&gt;detect_anomalies -->
<g id="edge6" class="edge">
<title>transform_validate&#45;&gt;detect_anomalies</title>
<path fill="none" stroke="black" d="M226.53,-112.99C239.25,-117.6 253.04,-122.6 266.18,-127.36"/>
<polygon fill="black" stroke="black" points="265.01,-130.66 275.6,-130.78 267.39,-124.08 265.01,-130.66"/>
</g>
<!-- transform_validate&#45;&gt;load_graveyard -->
<g id="edge7" class="edge">
<title>transform_validate&#45;&gt;load_graveyard</title>
<path fill="none" stroke="black" d="M235.39,-94.86C245.29,-94.86 255.58,-94.86 265.5,-94.86"/>
<polygon fill="black" stroke="black" points="265.69,-98.36 275.69,-94.86 265.69,-91.36 265.69,-98.36"/>
</g>
<!-- transform_validate&#45;&gt;load_valid -->
<g id="edge8" class="edge">
<title>transform_validate&#45;&gt;load_valid</title>
<path fill="none" stroke="black" d="M226.53,-76.73C243.77,-70.48 262.99,-63.52 279.86,-57.4"/>
<polygon fill="black" stroke="black" points="281.28,-60.61 289.49,-53.91 278.9,-54.03 281.28,-60.61"/>
</g>
<!-- transform_validate&#45;&gt;log_pipeline -->
<g id="edge9" class="edge">
<title>transform_validate&#45;&gt;log_pipeline</title>
<path fill="none" stroke="black" d="M190.55,-76.84C207.25,-57.03 237.16,-26.38 271,-13.86 317.27,3.26 336.66,5.59 382,-13.86 407.67,-24.87 428.82,-49.11 442.41,-68.22"/>
<polygon fill="black" stroke="black" points="439.59,-70.29 448.12,-76.57 445.37,-66.34 439.59,-70.29"/>
</g>
</g>
</svg>
